<svg version="1.1" viewBox="0 0 36 36" xmlns="http://www.w3.org/2000/svg" class="icon">
<title>attention</title>
<desc>Created with Sketch.</desc>
<g fill="none" fill-rule="evenodd">
<g transform="translate(-1122 -282)" fill="#252528" fill-rule="nonzero">
<g transform="translate(50 120)">
<path d="m1090 162c9.9411 0 18 8.0589 18 18s-8.0589 18-18 18-18-8.0589-18-18 8.0589-18 18-18zm0 2c-8.8366 0-16 7.1634-16 16s7.1634 16 16 16 16-7.1634 16-16-7.1634-16-16-16zm0 22c0.55228 0 1 0.44772 1 1s-0.44772 1-1 1-1-0.44772-1-1 0.44772-1 1-1zm0-14c0.55228 0 1 0.44772 1 1v10c0 0.55228-0.44772 1-1 1s-1-0.44772-1-1v-10c0-0.55228 0.44772-1 1-1z"/>
</g>
</g>
</g>
</svg>
